<?xml version="1.0" encoding="iso-8859-1"?>
<!-- Uploaded to: SVG Repo, www.svgrepo.com, Generator: SVG Repo Mixer Tools -->
<!DOCTYPE svg PUBLIC "-//W3C//DTD SVG 1.1//EN" "http://www.w3.org/Graphics/SVG/1.1/DTD/svg11.dtd">
<svg fill="#000000" version="1.1" id="Capa_1" xmlns="http://www.w3.org/2000/svg" xmlns:xlink="http://www.w3.org/1999/xlink" 
	 width="800px" height="800px" viewBox="0 0 108.365 108.366"
	 xml:space="preserve">
<g>
	<g>
		<rect x="56.201" y="73.86" width="8.033" height="8.048"/>
		<rect x="44.13" y="61.79" width="8.033" height="8.047"/>
		<path d="M29.254,6.08C11.878,15.104,0,33.25,0,54.182c0,29.924,24.258,54.183,54.182,54.183c24.205,0,44.695-15.874,51.646-37.776
			L80.26,48.935c-2.418,2.799-5.98,4.578-9.959,4.578c-7.259,0-13.166-5.906-13.166-13.166c0-3.063,1.06-5.875,2.818-8.115
			L29.254,6.08z M39.165,35.067c3.423,0,6.2,2.777,6.2,6.199c0,3.428-2.777,6.203-6.2,6.203s-6.201-2.775-6.201-6.203
			C32.965,37.845,35.742,35.067,39.165,35.067z M71.863,58.488c4.688,0,8.486,3.799,8.486,8.485v9.752
			c0,4.687-3.801,8.486-8.486,8.486H36.502c-4.687,0-8.486-3.801-8.486-8.486v-9.752c0-4.688,3.799-8.485,8.486-8.485H71.863z"/>
		<path d="M54.182,0C46.474,0,39.149,1.62,32.511,4.521l29.793,25.39c2.221-1.705,4.987-2.73,7.996-2.73
			c7.26,0,13.168,5.904,13.168,13.166c0,2.094-0.504,4.066-1.377,5.824L97.749,59.44l9.071,7.588
			c1.001-4.119,1.545-8.418,1.545-12.844C108.364,24.259,84.105,0,54.182,0z"/>
		<path d="M76.305,65.663c-0.455-1.578-1.429-2.934-2.726-3.873h-5.321v8.047h8.047V65.663z"/>
		<rect x="56.201" y="61.79" width="8.033" height="8.047"/>
		<path d="M76.305,78.037V73.86h-8.047v8.048h5.321C74.876,80.967,75.85,79.615,76.305,78.037z"/>
		<path d="M32.06,78.037c0.454,1.578,1.427,2.933,2.725,3.871h5.322V73.86H32.06V78.037z"/>
		<rect x="44.13" y="73.86" width="8.033" height="8.048"/>
		<path d="M32.06,65.663v4.174h8.047V61.79h-5.322C33.488,62.729,32.514,64.084,32.06,65.663z"/>
	</g>
</g>
</svg>